#!OML:ASF Y:\EmotionMaleHayes\Project 1\Capture day 1\Session 1\Male1.ASF
:FULLY-SPECIFIED
:DEGREES
1008
root 45.4397 16.145 -0.242312 -361.561 3.00775 -344.317
lowerback 6.33375 -1.94364 -15.1264
upperback 2.77342 -3.45952 -1.31784
thorax 0.21221 -1.88155 7.25734
lowerneck -17.9197 -8.42054 -9.06109
upperneck 25.8946 -12.6464 11.0004
head 12.9761 -5.15963 3.57445
rclavicle -4.94974e-014 0
rhumerus -56.6669 -14.3818 -60.4707
rradius 26.0708
rwrist 9.53138
rhand -9.17416 -40.4594
rfingers 7.12502
rthumb 16.7788 -69.7544
lclavicle -4.94974e-014 0
lhumerus -12.2118 0.793976 69.0821
lradius 46.9865
lwrist 9.11281
lhand -26.2491 -27.5527
lfingers 7.12502
lthumb 0.305115 2.42686
rfemur -24.4476 -17.002 11.303
rtibia 22.9582
rfoot -15.5459 -17.257
rtoes 29.0371
lfemur 24.7499 3.84877 -30.319
ltibia 14.8102
lfoot -19.0245 2.45075
ltoes -26.5416
1009
root 45.4304 16.1573 -0.0594233 -361.846 2.56943 -345.34
lowerback 6.23386 -1.94736 -13.9018
upperback 2.8717 -3.36882 -1.07422
thorax 0.283212 -1.83646 6.82994
lowerneck -18.0078 -8.46275 -8.36622
upperneck 25.8856 -12.7893 10.5863
head 12.919 -5.20209 3.26802
rclavicle -2.34566e-014 -5.08889e-014
rhumerus -56.4932 -14.8897 -60.5522
rradius 26.085
rwrist 10.6354
rhand -7.90771 -40.4495
rfingers 7.12502
rthumb 17.9976 -69.6368
lclavicle -2.34566e-014 -5.08889e-014
lhumerus -12.9707 0.455507 69.6086
lradius 47.3531
lwrist 9.22631
lhand -26.1906 -27.9352
lfingers 7.12502
lthumb 0.36164 2.04422
rfemur -24.0959 -17.1128 12.5365
rtibia 23.6176
rfoot -14.7967 -16.0934
rtoes 30.486
lfemur 24.8217 3.58264 -29.2227
ltibia 16.3401
lfoot -17.6646 3.47461
ltoes -34.58
1010
root 45.4093 16.1744 0.125317 -362.037 2.09942 -345.791
lowerback 6.06446 -1.88917 -13.2823
upperback 2.9167 -3.22761 -1.05854
thorax 0.354451 -1.76625 6.48927
lowerneck -17.9165 -8.49236 -8.71497
upperneck 25.9783 -12.9449 11.2062
head 13.0404 -5.23005 3.54214
rclavicle -5.56597e-015 -3.4191e-014
rhumerus -56.2772 -15.285 -61.0718
rradius 25.8464
rwrist 11.5136
rhand -7.29075 -39.7416
rfingers 7.12502
rthumb 18.5912 -68.8732
lclavicle -5.56597e-015 -3.4191e-014
lhumerus -13.8126 -0.264655 69.953
lradius 47.7052
lwrist 9.36019
lhand -25.9518 -28.4236
lfingers 7.12502
lthumb 0.592286 1.55537
rfemur -23.7865 -16.7478 13.1398
rtibia 24.351
rfoot -14.5057 -15.6727
rtoes 31.4189
lfemur 24.571 3.80147 -28.3996
ltibia 18.2193
lfoot -17.324 2.18944
ltoes -24.9132
1011
root 45.3817 16.1896 0.309292 -362.338 1.62591 -345.916
lowerback 6.05604 -1.87167 -13.2203
upperback 2.94379 -3.19771 -0.968565
thorax 0.383215 -1.7551 6.54822
lowerneck -17.8607 -8.44177 -8.05306
upperneck 25.9641 -12.904 10.6497
head 12.9163 -5.21914 3.22541
rclavicle 4.37326e-014 -3.18055e-015
rhumerus -55.8815 -15.1425 -61.742
rradius 25.558
rwrist 12.6769
rhand -7.47641 -38.6096
rfingers 7.12502
rthumb 18.4126 -67.7582
lclavicle 4.37326e-014 -3.18055e-015
lhumerus -14.9494 -0.720224 70.4052
lradius 48.1092
lwrist 9.28757
lhand -25.7461 -28.7571
lfingers 7.12502
lthumb 0.790944 1.2212
rfemur -23.2684 -15.8999 13.3088
rtibia 25.0705
rfoot -14.7809 -15.9072
rtoes 31.5922
lfemur 24.2995 4.26679 -27.7255
ltibia 20.273
lfoot -15.7761 1.9359
ltoes -25.8095
1012
root 45.3621 16.1969 0.487142 -362.992 1.01483 -347.14
lowerback 6.45765 -1.94205 -12.0719
upperback 3.01969 -3.27974 -0.45995
thorax 0.211676 -1.78177 6.4702
lowerneck -17.7703 -8.3658 -8.59343
upperneck 26.1915 -12.7173 10.8119
head 13.0231 -5.16979 3.42057
rclavicle -2.18663e-014 -2.94201e-014
rhumerus -55.2492 -14.6619 -62.2636
rradius 25.7055
rwrist 12.9721
rhand -6.91006 -38.0111
rfingers 7.12502
rthumb 18.9573 -67.1073
lclavicle -2.18663e-014 -2.94201e-014
lhumerus -16.3727 -0.57641 71.0111
lradius 48.4737
lwrist 8.73346
lhand -25.379 -28.9888
lfingers 7.12502
lthumb 1.1455 0.987881
rfemur -22.4178 -16.2568 14.8034
rtibia 25.7928
rfoot -14.7762 -15.053
rtoes 30.8679
lfemur 24.4747 4.57456 -25.8281
ltibia 22.2498
lfoot -13.9542 1.63492
ltoes -25.7965
1013
root 45.3424 16.2139 0.661656 -363.306 0.380658 -347.101
lowerback 6.60333 -1.92705 -12.2508
upperback 2.96794 -3.2939 -0.275169
thorax 0.10221 -1.78452 6.77601
lowerneck -17.7002 -8.21008 -8.26582
upperneck 26.342 -12.4866 10.397
head 12.9804 -5.08778 3.25379
rclavicle -9.34288e-015 -7.95139e-016
rhumerus -54.6109 -14.1142 -62.9702
rradius 25.8126
rwrist 13.3076
rhand -6.63745 -37.5195
rfingers 7.12502
rthumb 19.2195 -66.5898
lclavicle -9.34288e-015 -7.95139e-016
lhumerus -17.7703 -0.549231 71.6837
lradius 48.7538
lwrist 7.7882
lhand -24.6435 -29.1061
lfingers 7.12502
lthumb 1.85585 0.865579
rfemur -21.3991 -14.4113 14.8587
rtibia 25.6961
rfoot -15.219 -15.8249
rtoes 32.4568
lfemur 23.9761 4.80487 -25.5686
ltibia 24.6435
lfoot -11.9627 1.21827
ltoes -23.1445
1014
root 45.3111 16.2264 0.835934 -363.745 -0.258223 -347.494
lowerback 6.83735 -1.80625 -11.9352
upperback 3.01133 -3.14337 -0.112173
thorax -0.0239415 -1.70243 6.77736
lowerneck -17.6306 -8.2621 -8.37293
upperneck 26.4946 -12.6087 10.5506
head 13.0647 -5.13268 3.31333
rclavicle -3.57812e-015 2.38542e-014
rhumerus -54.0694 -13.618 -64.1656
rradius 26.1563
rwrist 12.6951
rhand -6.75123 -37.5105
rfingers 7.12502
rthumb 19.1101 -66.5917
lclavicle -3.57812e-015 2.38542e-014
lhumerus -18.9348 -0.808485 72.2881
lradius 48.9652
lwrist 6.51045
lhand -23.4487 -29.1965
lfingers 7.12502
lthumb 3.00982 0.761992
rfemur -20.236 -14.0952 15.3113
rtibia 25.5125
rfoot -15.4679 -14.9985
rtoes 34.7059
lfemur 23.5246 4.93684 -24.7231
ltibia 27.1612
lfoot -9.70659 0.753298
ltoes -16.5304
1015
root 45.2804 16.2384 1.00506 -364.21 -0.876336 -347.914
lowerback 7.15828 -1.65152 -11.4114
upperback 3.07427 -2.94393 -0.0753948
thorax -0.206945 -1.59008 6.52737
lowerneck -17.6637 -8.31039 -8.23224
upperneck 26.7025 -12.8038 10.701
head 13.1842 -5.17932 3.31492
rclavicle -6.85807e-015 -1.51076e-014
rhumerus -53.5906 -13.1592 -65.6901
rradius 26.4388
rwrist 11.2733
rhand -7.58041 -36.2779
rfingers 7.12502
rthumb 18.3125 -65.4359
lclavicle -6.85807e-015 -1.51076e-014
lhumerus -19.9852 -1.07685 72.7562
lradius 49.0936
lwrist 4.85562
lhand -21.8313 -29.5562
lfingers 7.12502
lthumb 4.57169 0.374422
rfemur -19.0231 -13.6146 15.8653
rtibia 25.3421
rfoot -15.6667 -14.5768
rtoes 35.2258
lfemur 22.9792 5.08481 -23.8194
ltibia 29.7633
lfoot -7.01483 0.510822
ltoes -10.6158
1016
root 45.2488 16.2502 1.17289 -364.568 -1.46248 -348.202
lowerback 7.40382 -1.53392 -11.09
upperback 3.08171 -2.79769 -0.023466
thorax -0.380428 -1.50517 6.4056
lowerneck -17.7178 -8.36299 -8.18045
upperneck 26.9932 -12.9967 10.8707
head 13.3521 -5.2281 3.34046
rclavicle -4.6118e-014 -2.62396e-014
rhumerus -53.0198 -12.821 -66.9419
rradius 26.5786
rwrist 10.4383
rhand -7.78223 -35.0613
rfingers 7.12502
rthumb 18.1184 -64.2374
lclavicle -4.6118e-014 -2.62396e-014
lhumerus -21.018 -1.03916 73.1957
lradius 49.0243
lwrist 2.56417
lhand -20.0463 -30.0907
lfingers 7.12502
lthumb 6.2951 -0.204218
rfemur -17.8461 -13.0471 16.2894
rtibia 25.1095
rfoot -16.0779 -14.3236
rtoes 36.2121
lfemur 22.2196 5.29951 -23.0473
ltibia 32.3895
lfoot -4.08032 0.510487
ltoes -9.78372
1017
root 45.2144 16.2644 1.33966 -364.793 -2.04432 -348.659
lowerback 7.48292 -1.48952 -10.6596
upperback 3.07639 -2.71793 0.132081
thorax -0.461386 -1.45841 6.32785
lowerneck -17.7107 -8.38966 -8.16455
upperneck 27.1905 -13.1059 10.9622
head 13.4544 -5.25858 3.35739
rclavicle -2.80286e-014 3.97569e-015
rhumerus -52.4243 -12.9449 -67.3909
rradius 27.0119
rwrist 11.6368
rhand -5.04846 -35.0979
rfingers 7.12502
rthumb 20.7469 -64.0088
lclavicle -2.80286e-014 3.97569e-015
lhumerus -21.9973 -0.714091 73.6245
lradius 48.8224
lwrist -0.0425751
lhand -17.9791 -30.6887
lfingers 7.12502
lthumb 8.29047 -0.871395
rfemur -16.7843 -12.7633 16.9649
rtibia 24.8414
rfoot -16.34 -13.9701
rtoes 36.0422
lfemur 21.2877 5.42156 -22.1681
ltibia 34.9394
lfoot -1.36853 0.606512
ltoes -10.2577
1018
root 45.1792 16.2807 1.50261 -364.962 -2.60947 -349.402
lowerback 7.51289 -1.46308 -9.91059
upperback 3.08043 -2.63163 0.354218
thorax -0.519347 -1.40795 6.13743
lowerneck -17.6612 -8.38521 -8.16021
upperneck 27.3256 -13.1777 11.1092
head 13.5236 -5.27041 3.40575
rclavicle -3.16068e-014 3.10104e-014
rhumerus -51.8333 -12.632 -68.4431
rradius 27.5984
rwrist 10.7344
rhand -4.13594 -34.7426
rfingers 7.12502
rthumb 21.6234 -63.5553
lclavicle -3.16068e-014 3.10104e-014
lhumerus -22.8971 -0.40985 74.0804
lradius 48.5622
lwrist -2.76146
lhand -15.7757 -31.3417
lfingers 7.12502
lthumb 10.4165 -1.61973
rfemur -15.5402 -12.216 18.0055
rtibia 24.1464
rfoot -16.6 -13.8236
rtoes 36.0873
lfemur 20.2897 5.25474 -21.0962
ltibia 37.396
lfoot 0.95774 0.640581
ltoes -7.5245
1019
root 45.1493 16.2942 1.65585 -365.11 -3.35156 -350.328
lowerback 7.60702 -1.37836 -8.87378
upperback 3.08322 -2.45356 0.577662
thorax -0.642448 -1.30627 5.78132
lowerneck -17.5573 -8.48422 -8.56045
upperneck 27.4077 -13.3885 11.6032
head 13.6441 -5.34514 3.63335
rclavicle 2.64384e-014 7.95139e-016
rhumerus -51.2168 -12.3309 -69.5825
rradius 28.0878
rwrist 9.85161
rhand -3.41869 -34.1075
rfingers 7.12502
rthumb 22.3121 -62.8393
lclavicle 2.64384e-014 7.95139e-016
lhumerus -23.6981 -0.0505279 74.5172
lradius 48.2383
lwrist -5.72831
lhand -13.6496 -32.0167
lfingers 7.12502
lthumb 12.4669 -2.40855
rfemur -14.4571 -11.6027 19.277
rtibia 23.5888
rfoot -17.0188 -13.4488
rtoes 37.3206
lfemur 19.2323 5.18697 -19.8351
ltibia 39.7756
lfoot 3.38416 0.494497
ltoes -4.0879
